<?xml version="1.0" encoding="UTF-8"?>
<svg id="_图层_2" data-name="图层 2" xmlns="http://www.w3.org/2000/svg" viewBox="0 0 383.24 73.41">
  <defs>
    <style>
      .cls-1 {
        fill: #fff;
      }

      .cls-2 {
        fill: #d6a3c9;
      }

      .cls-3 {
        fill: #c3dc88;
      }

      .cls-4 {
        fill: #cfa76d;
      }

      .cls-5 {
        fill: #b1b8d4;
      }
    </style>
  </defs>
  <g id="_图层_1-2" data-name="图层 1">
    <g>
      <path class="cls-1" d="m70.95,29.98c0,.68-.25,1.27-.74,1.76-.5.5-1.08.74-1.76.74H29.21c-.37,0-.57.18-.63.55-.26,2.61-.65,5.43-1.17,8.46v.16c0,.31.16.47.47.47h28.9c1.25,0,2.27.45,3.05,1.33.73.78,1.1,1.7,1.1,2.74v.47c-.73,7.57-1.53,13.17-2.39,16.8-.86,3.63-1.95,6.07-3.25,7.32-1.41,1.25-3.45,2.01-6.11,2.27h-2.35c-2.19,0-4.73-.08-7.6-.23-1.51-.1-2.58-1.02-3.21-2.74-.05-.16-.08-.34-.08-.55,0-.31.1-.63.31-.94.26-.42.6-.63,1.02-.63h.16c2.92.16,6.24.23,9.95.23,1.77,0,2.95-.23,3.52-.7,1.93-1.83,3.47-8.46,4.62-19.89v-.16c0-.31-.16-.47-.47-.47h-28.35c-.42,0-.68.18-.78.55-1.62,5.59-4.11,10.44-7.48,14.57s-8,7.52-13.9,10.18c-.37.1-.76.16-1.17.16-.37,0-.82-.08-1.37-.23-.55-.16-1.06-.55-1.53-1.17C.16,70.61,0,70.19,0,69.78c0-.16.03-.31.08-.47.1-.63.47-1.07,1.1-1.33,3.24-1.41,6.08-3.11,8.54-5.09,2.45-1.98,4.44-4.03,5.95-6.15,1.51-2.11,2.79-4.55,3.84-7.32,1.04-2.77,1.8-5.39,2.27-7.87.47-2.48.89-5.31,1.25-8.5,0-.36-.18-.55-.55-.55H2.5c-.68,0-1.27-.25-1.76-.74-.5-.49-.74-1.08-.74-1.76s.25-1.26.74-1.76c.5-.49,1.08-.74,1.76-.74h29.6c.36,0,.55-.18.55-.55v-7.44c0-.68.26-1.28.78-1.8s1.15-.78,1.88-.78c.68,0,1.28.26,1.8.78s.78,1.12.78,1.8v7.44c0,.37.18.55.55.55h30c.68,0,1.27.25,1.76.74.5.47.75,1.06.75,1.74Zm-49.5-9.95c-.73,0-1.36-.26-1.88-.78s-.78-1.12-.78-1.8v-5.01c0-.36-.18-.55-.55-.55H2.97c-.68,0-1.25-.25-1.72-.74s-.7-1.08-.7-1.76.23-1.25.7-1.72,1.04-.7,1.72-.7h15.27c.36,0,.55-.18.55-.55v-3.84c0-.73.26-1.34.78-1.84C20.09.25,20.72,0,21.45,0,22.13,0,22.73.25,23.25.74c.52.5.78,1.11.78,1.84v3.84c0,.37.18.55.55.55h21.22c.36,0,.55-.18.55-.55v-3.76c0-.73.26-1.36.78-1.88.52-.52,1.15-.78,1.88-.78s1.36.26,1.88.78.78,1.15.78,1.88v3.76c0,.37.18.55.55.55h15.74c.68,0,1.25.23,1.72.7s.7,1.05.7,1.72-.23,1.27-.7,1.76c-.47.5-1.04.74-1.72.74h-15.73c-.37,0-.55.18-.55.55v4.93c0,.73-.26,1.36-.78,1.88-.52.52-1.15.78-1.88.78s-1.36-.26-1.88-.78-.78-1.15-.78-1.88v-4.93c0-.36-.18-.55-.55-.55h-21.22c-.37,0-.55.18-.55.55v5.01c0,.68-.26,1.28-.78,1.8-.53.52-1.13.78-1.81.78Z"/>
      <path class="cls-1" d="m148.96,13.77h-67.75c-.68-.05-1.24-.33-1.68-.82-.44-.49-.67-1.06-.67-1.68,0-.68.22-1.26.67-1.76.44-.49,1-.77,1.68-.82h67.75c.68,0,1.27.25,1.76.74s.74,1.11.74,1.84c0,.68-.25,1.27-.74,1.76-.5.49-1.09.74-1.76.74Zm-4.39,59.05c-.68,0-1.25-.21-1.72-.63l-27.73-25.85-27.96,25.85c-.47.42-1.04.63-1.72.63s-1.27-.23-1.76-.7c-.5-.47-.74-1.07-.74-1.8s.26-1.36.78-1.88l27.65-25.53-23.42-21.38c-.52-.47-.78-1.1-.78-1.88,0-.68.25-1.26.74-1.76.5-.49,1.08-.74,1.76-.74s1.25.23,1.72.7l23.73,21.62,23.5-21.62c.47-.47,1.04-.7,1.72-.7s1.27.25,1.76.74.74,1.08.74,1.76c0,.73-.26,1.36-.78,1.88l-23.18,21.38,27.41,25.53c.52.52.78,1.15.78,1.88s-.25,1.33-.74,1.8c-.49.46-1.08.7-1.76.7ZM114.97,5.31c-.68,0-1.27-.25-1.76-.74-.5-.49-.74-1.08-.74-1.76,0-.73.25-1.34.74-1.84.5-.49,1.08-.74,1.76-.74.73,0,1.34.25,1.84.74.5.5.74,1.11.74,1.84,0,.68-.25,1.27-.74,1.76-.5.49-1.11.74-1.84.74Z"/>
      <path class="cls-1" d="m303.7,72.82h-59.13c-.68,0-1.27-.23-1.76-.7-.5-.47-.74-1.07-.74-1.8,0-.68.25-1.27.74-1.76.5-.5,1.08-.74,1.76-.74h31.25v-7.6h-22.79c-.68,0-1.27-.25-1.76-.74-.5-.49-.74-1.11-.74-1.84,0-.68.25-1.26.74-1.76.5-.49,1.08-.74,1.76-.74h22.79v-7.6h-23.34l-1.41,2.82c-.47.94-1.23,1.41-2.27,1.41-.68,0-1.27-.25-1.76-.74-.5-.49-.74-1.08-.74-1.76,0-.42.1-.81.31-1.17l4.15-8.38c.52-.94,1.28-1.41,2.27-1.41.73,0,1.34.23,1.84.7s.74,1.07.74,1.8c0,.42-.18.97-.55,1.64h20.75v-2.51c0-.68.25-1.26.74-1.76.5-.49,1.11-.74,1.84-.74.68,0,1.27.25,1.76.74.5.5.74,1.08.74,1.76v2.51h27.02c.68,0,1.27.25,1.76.74.5.5.74,1.11.74,1.84,0,.68-.23,1.27-.7,1.76-.47.5-1.07.74-1.8.74h-27.02v20.28h22.79c.68,0,1.27.25,1.76.74.5.5.74,1.08.74,1.76,0,.73-.25,1.33-.74,1.8-.48.47-1.07.71-1.74.71Zm0-37.99h-50.99c-2.45,0-4.14-.49-5.05-1.49-.91-.99-1.37-2.74-1.37-5.25V9.53c.05-2.19.59-3.72,1.61-4.58s2.73-1.29,5.13-1.29h51.06c2.24,0,3.85.45,4.82,1.33.97.89,1.47,2.4,1.53,4.54v18.56c0,2.56-.47,4.32-1.41,5.29-.95.97-2.72,1.45-5.33,1.45Zm1.64-5.01v-4.23h.08V8.67h-54.04v21.15h53.96Zm-5.87-8.07h-42.21c-.68,0-1.27-.25-1.76-.74-.5-.49-.74-1.08-.74-1.76s.25-1.26.74-1.76c.5-.49,1.08-.74,1.76-.74h42.21c.68,0,1.27.25,1.76.74.5.5.74,1.08.74,1.76s-.25,1.27-.74,1.76c-.5.5-1.08.74-1.76.74Zm4.23,38.46h-16.92c-.68,0-1.27-.25-1.76-.74-.5-.49-.74-1.11-.74-1.84,0-.68.25-1.26.74-1.76.5-.49,1.08-.74,1.76-.74h16.92c.68,0,1.27.25,1.76.74.5.5.74,1.08.74,1.76,0,.73-.25,1.35-.74,1.84-.5.49-1.09.74-1.76.74Zm8.46,12.61c-.73,0-1.35-.23-1.84-.7-.5-.47-.74-1.07-.74-1.8,0-.68.25-1.27.74-1.76.5-.5,1.11-.74,1.84-.74.68,0,1.27.25,1.76.74.5.5.74,1.08.74,1.76,0,.73-.25,1.33-.74,1.8-.5.46-1.09.7-1.76.7Z"/>
    </g>
    <path class="cls-1" d="m184.87,20.37h-24.02c-1.04,0-1.89-.85-1.89-1.89v-1.71c0-1.04.85-1.89,1.89-1.89h24.02c1.04,0,1.89.85,1.89,1.89v1.71c0,1.04-.85,1.89-1.89,1.89Z"/>
    <path class="cls-1" d="m162.63,63.19c-1.99-1.31-1.36-2.44-.67-3.94l19.17-41.4c.78-1.69,1.78-3.01,3.94-1.9,2.19,1.12,1.89,2.52,1.11,4.2l-19.17,41.4c-.78,1.69-2.2,2.69-3.94,1.9-.16-.07-.3-.16-.44-.26Z"/>
    <path class="cls-1" d="m169.63,38.75c-.98.3-2.1-.26-2.69-1.43l-5.27-10.42c-.7-1.39-.4-3.13.68-3.87,1.08-.75,2.52-.22,3.22,1.17l5.27,10.43c.7,1.39.4,3.13-.68,3.87-.17.11-.35.19-.53.25Z"/>
    <path class="cls-1" d="m191.32,37.85V9.25c0-.34.11-.67.31-.96.83-1.78,3.4-4.21,9.05-4.21h21.21c3.01,0,7.49,1.66,7.49,6.22v27.54c0,1.23,0,1.78-3.12,1.78s-3.12-.55-3.12-1.78V10.3c0-1.69-1.04-1.78-1.25-1.78h-21.21c-2.43,0-3,.83-3.12,1.11v28.21c0,1.23-.62,1.78-3.12,1.78-3.12.01-3.12-.54-3.12-1.77Z"/>
    <path class="cls-1" d="m179.85,60.05c-.97.29-2.07-.25-2.66-1.41l-5.2-10.29c-.69-1.38-.4-3.09.67-3.83,1.06-.74,2.49-.22,3.18,1.15l5.2,10.29c.69,1.38.4,3.09-.67,3.83-.16.12-.33.2-.52.26Z"/>
    <path class="cls-1" d="m207.63,38.38v-19.97c0-1.04.85-1.89,1.89-1.89h1.36c1.04,0,1.89.85,1.89,1.89v19.97c0,1.04-.85,1.89-1.89,1.89h-1.36c-1.04,0-1.89-.85-1.89-1.89Z"/>
    <path class="cls-1" d="m207.78,41.06v-20.62c0-1.04.85-1.89,1.89-1.89h1.36c1.04,0,1.89.85,1.89,1.89v20.62c0,1.04-.85,1.89-1.89,1.89h-1.36c-1.04,0-1.89-.84-1.89-1.89Z"/>
    <path class="cls-1" d="m214.29,44.18h0c-1.53,0-2.78,1.05-2.78,2.33v20.77c0,3.19,3.08,5.77,6.88,5.77h13.11c1.53,0,2.78-1.05,2.78-2.33v-.47c0-1.28-1.25-2.33-2.78-2.33h-12.77c-.92,0-1.67-.63-1.67-1.4v-20.02c0-1.27-1.24-2.32-2.77-2.32Z"/>
    <path d="m234.28,62.88c0,1.66-1.26,3-2.81,3s-2.81-1.34-2.81-3,1.26-3,2.81-3,2.81,1.34,2.81,3Z"/>
    <path class="cls-1" d="m203.11,58.66c-1.62-.93-1.81-1.79-1.3-3.07l5.98-15.14c.62-2.31,1.63-2.2,3.41-1.4,1.63.73,2.12,1.79,1.41,3.67l-5.98,15.14c-.55,1.4-.77,1.64-3.18.99-.13-.03-.24-.12-.34-.19Z"/>
    <path class="cls-1" d="m196.73,72.24c-1.6-.99-1.74-1.88-1.15-3.18l7.04-15.44c.77-2.36,1.8-2.23,3.59-1.37,1.63.78,2.06,1.89,1.23,3.8l-7.04,15.44c-.65,1.43-.89,1.67-3.32.95-.13-.03-.24-.12-.35-.2Z"/>
    <path class="cls-1" d="m179.98,70.01c.24-1.75.94-2.21,2.28-2.2l15.88.14c2.31-.24,2.59.69,2.53,2.54-.05,1.69-.83,2.48-2.78,2.5l-15.88-.14c-1.47-.01-1.77-.13-2.08-2.48-.01-.11.03-.24.05-.36Z"/>
    <path class="cls-1" d="m377.4,29.54c0,2.17-1.41,3.12-10.79,3.12h-35.64c-9.38,0-10.79-.95-10.79-3.12s1.41-3.12,10.79-3.12h35.64c9.38,0,10.79.95,10.79,3.12Z"/>
    <path class="cls-1" d="m340.27,5.13c1.78,1.24,2.1,2.45-.98,6.85l-11.68,16.72c-3.07,4.4-4.31,4.52-6.09,3.28s-2.1-2.45.98-6.85l11.68-16.72c3.08-4.41,4.32-4.52,6.09-3.28Z"/>
    <path class="cls-1" d="m323.27,44.36c2.17-.01,3.12.68,3.15,5.34l.11,17.7c.03,4.66-.92,5.36-3.09,5.37-2.17.01-3.12-.68-3.15-5.34l-.11-17.7c-.03-4.66.92-5.36,3.09-5.37Z"/>
    <path class="cls-1" d="m380.99,46.66c0,2.17-1.49,3.12-11.42,3.12h-37.75c-9.93,0-11.42-.95-11.42-3.12s1.49-3.12,11.42-3.12h37.75c9.93,0,11.42.95,11.42,3.12Z"/>
    <path class="cls-1" d="m378.09,44.36c2.17-.01,3.12.68,3.15,5.33l.11,17.69c.03,4.66-.92,5.36-3.09,5.37-2.17.01-3.12-.68-3.15-5.33l-.11-17.69c-.03-4.65.92-5.36,3.09-5.37Z"/>
    <path class="cls-1" d="m380.99,69.91c0,2.17-1.49,3.12-11.42,3.12h-37.75c-9.93,0-11.42-.95-11.42-3.12s1.49-3.12,11.42-3.12h37.75c9.93,0,11.42.95,11.42,3.12Z"/>
    <path class="cls-1" d="m370.7,20.22c1.84-1.15,2.91-1.23,4.69,1.61l6.76,10.8c1.78,2.84,1.24,3.77-.6,4.92-1.84,1.15-2.91,1.23-4.69-1.61l-6.76-10.8c-1.78-2.84-1.24-3.77.6-4.92Z"/>
    <path d="m370.93,16.74c0,1.66-1.26,3-2.81,3s-2.81-1.34-2.81-3,1.26-3,2.81-3,2.81,1.34,2.81,3Z"/>
    <circle class="cls-4" cx="115.01" cy="2.76" r="2.71"/>
    <circle class="cls-3" cx="231.47" cy="62.88" r="3"/>
    <circle class="cls-3" cx="312.12" cy="70.41" r="3"/>
    <circle class="cls-2" cx="312.12" cy="70.41" r="3"/>
    <circle class="cls-5" cx="368.12" cy="16.74" r="2.87"/>
  </g>
</svg>